<svg width="56" height="56" viewBox="0 0 56 56" fill="none" xmlns="http://www.w3.org/2000/svg">
<g id="bx-book-open 1">
<path id="Vector" d="M49 7H32.6667C30.939 7.00585 29.2754 7.65465 28 8.82C26.7246 7.65465 25.061 7.00585 23.3333 7H7C6.38116 7 5.78767 7.24583 5.35008 7.68342C4.9125 8.121 4.66666 8.71449 4.66666 9.33333V44.3333C4.66666 44.9522 4.9125 45.5457 5.35008 45.9833C5.78767 46.4208 6.38116 46.6667 7 46.6667H20.4353C21.6627 46.6667 22.8667 47.166 23.7347 48.034L26.3503 50.6497C26.3713 50.6707 26.3993 50.6777 26.4203 50.6987C26.621 50.883 26.845 51.0463 27.1063 51.156H27.111C27.6802 51.3917 28.3198 51.3917 28.889 51.156H28.8937C29.155 51.0463 29.379 50.883 29.5797 50.6987C29.6007 50.6777 29.6287 50.6707 29.6497 50.6497L32.2653 48.034C33.1425 47.162 34.3279 46.6707 35.5647 46.6667H49C49.6188 46.6667 50.2123 46.4208 50.6499 45.9833C51.0875 45.5457 51.3333 44.9522 51.3333 44.3333V9.33333C51.3333 8.71449 51.0875 8.121 50.6499 7.68342C50.2123 7.24583 49.6188 7 49 7ZM20.4353 42H9.33333V11.6667H23.3333C24.6213 11.6667 25.6667 12.7143 25.6667 14V43.6077C24.1207 42.5652 22.2999 42.0057 20.4353 42ZM46.6667 42H35.5647C33.7003 42 31.8687 42.574 30.3333 43.6077V14C30.3333 12.7143 31.3787 11.6667 32.6667 11.6667H46.6667V42Z" fill="white"/>
</g>
</svg>
