<svg width="55" height="55" viewBox="0 0 55 55" fill="none" xmlns="http://www.w3.org/2000/svg">
<g id="bx-chat 1">
<path id="Vector" d="M11.4583 41.25V49.8804L14.9302 47.7973L25.8431 41.25H36.6667C39.1944 41.25 41.25 39.1944 41.25 36.6667V18.3333C41.25 15.8056 39.1944 13.75 36.6667 13.75H9.16668C6.63897 13.75 4.58334 15.8056 4.58334 18.3333V36.6667C4.58334 39.1944 6.63897 41.25 9.16668 41.25H11.4583ZM9.16668 18.3333H36.6667V36.6667H24.5735L16.0417 41.7862V36.6667H9.16668V18.3333Z" fill="white"/>
<path id="Vector_2" d="M45.8333 4.58337H18.3333C15.8056 4.58337 13.75 6.639 13.75 9.16671H41.25C43.7777 9.16671 45.8333 11.2223 45.8333 13.75V32.0834C48.361 32.0834 50.4167 30.0278 50.4167 27.5V9.16671C50.4167 6.639 48.361 4.58337 45.8333 4.58337Z" fill="white"/>
</g>
</svg>
