<svg width="57" height="57" viewBox="0 0 57 57" fill="none" xmlns="http://www.w3.org/2000/svg">
<g id="bxs-bank 1">
<path id="Vector" d="M4.75 19V28.5024H7.125V42.75H4.75V49.875H42.75L49.875 49.8774L52.25 49.875V42.75H49.875V28.5024H52.25V19L28.5 4.75L4.75 19ZM14.25 42.75V28.5024H19V42.75H14.25ZM26.125 42.75V28.5024H30.875V42.75H26.125ZM42.75 42.75H38V28.5024H42.75V42.75ZM33.25 19C33.2498 19.6239 33.1268 20.2417 32.8879 20.8181C32.649 21.3945 32.2989 21.9182 31.8576 22.3592C31.4163 22.8003 30.8924 23.1502 30.3159 23.3888C29.7394 23.6274 29.1216 23.7502 28.4976 23.75C27.8737 23.7498 27.2559 23.6268 26.6795 23.3879C26.1031 23.149 25.5795 22.7989 25.1384 22.3576C24.6973 21.9163 24.3475 21.3924 24.1088 20.8159C23.8702 20.2394 23.7475 19.6216 23.7476 18.9976C23.7479 17.7375 24.2488 16.5292 25.1401 15.6384C26.0313 14.7476 27.2399 14.2473 28.5 14.2476C29.7601 14.2479 30.9685 14.7488 31.8592 15.6401C32.75 16.5313 33.2503 17.7399 33.25 19Z" fill="white"/>
</g>
</svg>
